HIERARCHY
ROOT Hips
{
  OFFSET 0 0 0
  CHANNELS 6 Xposition Yposition Zposition Zrotation Yrotation Xrotation
  JOINT LeftThigh
  {
    OFFSET 8.409438 0 -5.917753
    CHANNELS 3 Zrotation Yrotation Xrotation
    JOINT LeftLeg
    {
      OFFSET 0 0 -42.358652
      CHANNELS 3 Zrotation Yrotation Xrotation
      JOINT LeftFoot
      {
        OFFSET 0 0 -39.357303
        CHANNELS 3 Zrotation Yrotation Xrotation
      }
    }
  }
  JOINT RightThigh
  {
    OFFSET -8.409438 0 -5.917753
    CHANNELS 3 Zrotation Yrotation Xrotation
    JOINT RightLeg
    {
      OFFSET 0 0 -42.358652
      CHANNELS 3 Zrotation Yrotation Xrotation
      JOINT RightFoot
      {
        OFFSET 0 0 -39.357303
        CHANNELS 3 Zrotation Yrotation Xrotation
      }
    }
  }
  JOINT SpineLow
  {
    OFFSET 0 0 4.719101
    CHANNELS 3 Zrotation Yrotation Xrotation
    JOINT SpineMid
    {
      OFFSET 0 0 12.899191
      CHANNELS 3 Zrotation Yrotation Xrotation
      JOINT Chest
      {
        OFFSET 0 0 12.899191
        CHANNELS 3 Zrotation Yrotation Xrotation
        JOINT LeftShoulder
        {
          OFFSET 7.550562 1.41573 9.438202
          CHANNELS 3 Zrotation Yrotation Xrotation
          JOINT LeftArm
          {
            OFFSET 9.155056 0 4.247191
            CHANNELS 3 Zrotation Yrotation Xrotation
            JOINT LeftForearm
            {
              OFFSET 0 0 25.771955
              CHANNELS 3 Zrotation Yrotation Xrotation
              JOINT LeftHand
              {
                OFFSET 0 0 25.197169
                CHANNELS 3 Zrotation Yrotation Xrotation
              }
            }
          }
        }
        JOINT RightShoulder
        {
          OFFSET -7.550562 1.41573 9.438202
          CHANNELS 3 Zrotation Yrotation Xrotation
          JOINT RightArm
          {
            OFFSET -9.155056 0 4.247191
            CHANNELS 3 Zrotation Yrotation Xrotation
            JOINT RightForearm
            {
              OFFSET 0 0 -25.771955
              CHANNELS 3 Zrotation Yrotation Xrotation
              JOINT RightHand
              {
                OFFSET 0 0 -25.197169
                CHANNELS 3 Zrotation Yrotation Xrotation
              }
            }
          }
        }
        JOINT Neck
        {
          OFFSET 0 0 15.101124
          CHANNELS 3 Zrotation Yrotation Xrotation
          JOINT Head
          {
            OFFSET 0 0 11.325843
            CHANNELS 3 Zrotation Yrotation Xrotation
            End Site
            {
              OFFSET 0 0 14.157303
            }
          }
        }
      }
    }
  }
}
MOTION
Frames: 8
Frame Time: 0.0
0.0  93.25843  0.0  -8.422151  10.663572  -89.366492  4.256619  -20.17833  -13.350972  -4.048322  0.547173  22.477766  4.209025  0.16349  2.566249  -26.954414  -5.525775  -6.748818  -16.633943  10.090694  9.610413  5.600206  2.868158  0.387226  5.708706  -2.538743  0.075168  15.649154  -6.912555  -0.395976  15.649155  -6.912555  -0.395976  -1.127418  30.20359  9.400283  -167.274723  18.083372  -175.999252  -7.514537  27.904071  113.458866  17.848191  -11.820908  -7.383123  -3.519332  -2.346499  30.115365  59.926302  62.504508  19.711826  -6.4639  9.518869  -18.701009  52.267326  -22.734664  25.362109  -32.102816  0.131945  -1.738078  -24.076966  0.191036  -1.300891  
0.0  93.25843  0.0  -8.063365  10.024956  -89.564954  5.539591  -19.624752  -12.717526  -4.643831  0.310067  21.954221  3.827579  0.267244  2.438549  -25.938946  -5.283951  -6.366218  -16.782401  10.237184  9.289319  5.313568  2.870041  0.373937  5.506615  -2.630446  0.05745  15.100279  -7.160141  -0.444264  15.100278  -7.160141  -0.444264  -0.91333  31.504111  9.732881  -168.098291  17.514845  -175.551168  -10.360473  33.330669  110.212672  18.813329  -16.355586  -10.596564  -4.153629  -1.962196  29.857128  73.239668  61.270681  29.151821  -6.41743  11.506717  -16.923489  48.741707  -22.098792  24.882924  -31.129586  1.751187  -1.281345  -23.341832  1.383028  -0.874276  
0.0  93.25843  0.0  -7.530946  9.392826  -89.433835  6.161056  -19.150512  -12.158099  -4.998805  0.388747  21.340547  3.787946  0.326031  2.393507  -25.64799  -5.008384  -6.445625  -16.719477  10.332996  9.160433  6.075453  3.158879  0.513163  5.078701  -2.643036  0.052136  13.927434  -7.198664  -0.414925  13.927433  -7.198663  -0.414925  0.940619  31.928884  9.618126  -170.138539  16.691014  -175.622642  -15.249031  38.78233  105.128027  22.067414  -15.982729  -13.55076  -3.482571  -2.154511  29.118581  76.004165  60.360375  29.594621  -4.497915  13.407265  -15.833788  45.540653  -20.299984  25.190954  -29.200588  3.365198  -0.814951  -21.889685  2.569851  -0.451093  
0.0  93.25843  0.0  -7.031544  8.571421  -89.330757  6.275952  -18.890014  -11.534117  -5.008865  0.607136  20.855534  4.125912  0.357333  2.51511  -25.955735  -4.767707  -6.648034  -16.42092  10.474921  9.170736  6.233262  3.208008  0.469662  4.623701  -2.631303  0.022041  12.682049  -7.166273  -0.445079  12.682049  -7.166273  -0.445079  2.606467  32.23111  9.29095  -171.993406  16.836928  -176.269133  -18.716686  41.218519  101.598385  24.42855  -15.331794  -15.909132  -1.954034  -2.581882  28.604586  72.339143  59.204612  25.866367  -4.39465  13.688278  -17.396512  46.948539  -18.321813  26.844  -27.035022  4.620763  -0.190675  -20.263782  3.482097  0.062254  
0.0  93.25843  0.0  -6.734224  7.604878  -89.416061  5.9828  -18.94761  -10.834888  -5.671337  1.208095  19.804434  5.482604  0.356525  3.382632  -26.734684  -4.581166  -6.747762  -15.62343  10.579949  9.293926  6.395524  3.242444  0.422758  4.365443  -2.684655  0.001977  11.977521  -7.310979  -0.481612  11.977521  -7.310979  -0.481613  2.896143  32.948361  9.116661  -173.190966  17.408087  -176.606199  -19.348546  39.645815  100.260651  22.288254  -16.001177  -17.262896  -0.633324  -3.002598  28.396457  66.405199  58.18255  21.186765  -3.751832  14.089173  -19.442557  49.810758  -17.195918  27.99764  -25.481241  5.390689  0.271376  -19.099155  4.040028  0.429852  
0.0  93.25843  0.0  -6.654754  6.506299  -89.458911  5.462329  -19.161296  -10.302159  -4.649963  1.258123  19.95139  5.50392  0.389178  3.451942  -27.498369  -4.493592  -6.859669  -14.769161  10.474466  9.458999  6.716133  3.258969  0.429772  4.30601  -2.688701  -0.08319  11.82394  -7.307522  -0.708556  11.82394  -7.307523  -0.708556  2.196074  32.97682  8.992132  -174.381046  17.254989  -177.147444  -18.985226  37.37838  100.698743  20.07324  -17.011278  -17.217879  0.106746  -3.605034  29.210718  60.765797  57.943911  16.624382  -1.052742  15.297441  -20.207356  50.65643  -16.799296  28.191823  -24.541963  5.522735  0.825112  -18.399643  4.116798  0.842568  
0.0  93.25843  0.0  -6.555106  5.155389  -89.525072  4.900186  -19.270295  -9.883734  -3.491548  1.278149  20.368982  5.55015  0.403699  3.517214  -27.647436  -4.324089  -6.881958  -14.311828  10.338206  9.405723  6.638459  3.361017  0.286972  4.374667  -2.675352  -0.201794  12.024694  -7.24852  -1.037843  12.024693  -7.24852  -1.037843  1.434906  32.857956  9.472687  -175.08676  17.088546  -177.554618  -18.841138  36.500632  101.505526  20.417954  -16.726004  -14.987416  -0.013533  -4.043015  30.464542  59.807884  58.145796  15.660603  0.988777  16.397814  -20.110381  50.189031  -16.742441  27.577499  -23.999358  5.390512  1.395179  -17.998592  3.995429  1.260347  
0.0  93.25843  0.0  -6.406776  3.652542  -89.6275  4.482359  -19.235313  -9.61158  -2.457092  1.304404  20.989206  5.73457  0.381053  3.599158  -27.000702  -4.050157  -6.889666  -13.88108  10.154362  9.462344  6.749595  3.307525  0.321444  4.446602  -2.654712  -0.217217  12.222813  -7.187964  -1.083975  12.222813  -7.187963  -1.083975  0.860629  32.810054  9.586273  -174.624872  17.531899  -177.707885  -17.37008  34.945809  102.817847  20.227721  -16.505507  -12.423208  -0.037728  -4.150808  30.961784  63.12464  58.268654  18.047006  0.490098  16.490899  -19.983628  50.374153  -16.92037  26.999999  -23.486862  4.992225  1.556389  -17.616799  3.690847  1.361392  
